HIERARCHY
ROOT hip
{
  OFFSET -6.20824 83.5853 37.2369
  CHANNELS 6 Xposition Yposition Zposition Zrotation Xrotation Yrotation
  JOINT abdomen
  {
    OFFSET 0 20.6881 -0.73152
    CHANNELS 3 Zrotation Xrotation Yrotation
    JOINT chest
    {
      OFFSET 0 11.7043 -0.48768
      CHANNELS 3 Zrotation Xrotation Yrotation
      JOINT neck
      {
        OFFSET 0 22.1894 -2.19456
        CHANNELS 3 Zrotation Xrotation Yrotation
        JOINT head
        {
          OFFSET -0.24384 7.07133 1.2192
          CHANNELS 3 Zrotation Xrotation Yrotation
          JOINT leftEye
          {
            OFFSET 4.14528 8.04674 8.04672
            CHANNELS 3 Zrotation Xrotation Yrotation
            End Site
            {
              OFFSET 1 0 0
            }
          }
          JOINT rightEye
          {
            OFFSET -3.6576 8.04674 8.04672
            CHANNELS 3 Zrotation Xrotation Yrotation
            End Site
            {
              OFFSET 1 0 0
            }
          }
        }
      }
      JOINT rCollar
      {
        OFFSET -2.68224 19.2634 -4.8768
        CHANNELS 3 Zrotation Xrotation Yrotation
        JOINT rShldr
        {
          OFFSET -8.77824 -1.95073 1.46304
          CHANNELS 3 Zrotation Xrotation Yrotation
          JOINT rForeArm
          {
            OFFSET -28.1742 -1.7115 0.48768
            CHANNELS 3 Zrotation Xrotation Yrotation
            JOINT rHand
            {
              OFFSET -22.5879 0.773209 7.07136
              CHANNELS 3 Zrotation Xrotation Yrotation
              JOINT rThumb1
              {
                OFFSET -1.2192 -0.487915 3.41376
                CHANNELS 3 Zrotation Xrotation Yrotation
                JOINT rThumb2
                {
                  OFFSET -3.37035 -0.52449 3.41376
                  CHANNELS 3 Zrotation Xrotation Yrotation
                  End Site
                  {
                    OFFSET -1.78271 -1.18214 1.43049
                  }
                }
              }
              JOINT rIndex1
              {
                OFFSET -7.75947 0.938293 5.60832
                CHANNELS 3 Zrotation Xrotation Yrotation
                JOINT rIndex2
                {
                  OFFSET -2.54057 -0.884171 1.56538
                  CHANNELS 3 Zrotation Xrotation Yrotation
                  End Site
                  {
                    OFFSET -1.62519 -0.234802 1.16502
                  }
                }
              }
              JOINT rMid1
              {
                OFFSET -8.24714 1.18213 3.41376
                CHANNELS 3 Zrotation Xrotation Yrotation
                JOINT rMid2
                {
                  OFFSET -3.10165 -0.590103 1.0647
                  CHANNELS 3 Zrotation Xrotation Yrotation
                  End Site
                  {
                    OFFSET -2.48547 -0.328903 0.83742
                  }
                }
              }
              JOINT rRing1
              {
                OFFSET -8.82822 0.546677 1.51678
                CHANNELS 3 Zrotation Xrotation Yrotation
                JOINT rRing2
                {
                  OFFSET -2.60934 -0.819778 -0.0198488
                  CHANNELS 3 Zrotation Xrotation Yrotation
                  End Site
                  {
                    OFFSET -2.33842 -0.294052 0.168128
                  }
                }
              }
              JOINT rPinky1
              {
                OFFSET -8.27202 -0.0477905 -0.4584
                CHANNELS 3 Zrotation Xrotation Yrotation
                JOINT rPinky2
                {
                  OFFSET -1.82734 -0.647385 -0.700984
                  CHANNELS 3 Zrotation Xrotation Yrotation
                  End Site
                  {
                    OFFSET -1.69225 -0.51767 -0.607171
                  }
                }
              }
            }
          }
        }
      }
      JOINT lCollar
      {
        OFFSET 2.68224 19.2634 -4.8768
        CHANNELS 3 Zrotation Xrotation Yrotation
        JOINT lShldr
        {
          OFFSET 8.77824 -1.95073 1.46304
          CHANNELS 3 Zrotation Xrotation Yrotation
          JOINT lForeArm
          {
            OFFSET 28.1742 -1.7115 0.48768
            CHANNELS 3 Zrotation Xrotation Yrotation
            JOINT lHand
            {
              OFFSET 22.5879 0.773209 7.07136
              CHANNELS 3 Zrotation Xrotation Yrotation
              JOINT lThumb1
              {
                OFFSET 1.2192 -0.487915 3.41376
                CHANNELS 3 Zrotation Xrotation Yrotation
                JOINT lThumb2
                {
                  OFFSET 3.37035 -0.52449 3.41376
                  CHANNELS 3 Zrotation Xrotation Yrotation
                  End Site
                  {
                    OFFSET 1.78271 -1.18214 1.43049
                  }
                }
              }
              JOINT lIndex1
              {
                OFFSET 7.75947 0.938293 5.60832
                CHANNELS 3 Zrotation Xrotation Yrotation
                JOINT lIndex2
                {
                  OFFSET 2.54057 -0.884171 1.56538
                  CHANNELS 3 Zrotation Xrotation Yrotation
                  End Site
                  {
                    OFFSET 1.62519 -0.234802 1.16502
                  }
                }
              }
              JOINT lMid1
              {
                OFFSET 8.24714 1.18213 3.41376
                CHANNELS 3 Zrotation Xrotation Yrotation
                JOINT lMid2
                {
                  OFFSET 3.10165 -0.590103 1.0647
                  CHANNELS 3 Zrotation Xrotation Yrotation
                  End Site
                  {
                    OFFSET 2.48547 -0.328903 0.83742
                  }
                }
              }
              JOINT lRing1
              {
                OFFSET 8.82822 0.546677 1.51678
                CHANNELS 3 Zrotation Xrotation Yrotation
                JOINT lRing2
                {
                  OFFSET 2.60934 -0.819778 -0.0198488
                  CHANNELS 3 Zrotation Xrotation Yrotation
                  End Site
                  {
                    OFFSET 2.33842 -0.294052 0.168128
                  }
                }
              }
              JOINT lPinky1
              {
                OFFSET 8.27202 -0.0477905 -0.4584
                CHANNELS 3 Zrotation Xrotation Yrotation
                JOINT lPinky2
                {
                  OFFSET 1.82734 -0.647385 -0.700984
                  CHANNELS 3 Zrotation Xrotation Yrotation
                  End Site
                  {
                    OFFSET 1.69225 -0.51767 -0.607171
                  }
                }
              }
            }
          }
        }
      }
    }
  }
  JOINT rButtock
  {
    OFFSET -8.77824 4.35084 1.2192
    CHANNELS 3 Zrotation Xrotation Yrotation
    JOINT rThigh
    {
      OFFSET 0 -1.70687 -2.19456
      CHANNELS 3 Zrotation Xrotation Yrotation
      JOINT rShin
      {
        OFFSET 0 -36.8199 0.73152
        CHANNELS 3 Zrotation Xrotation Yrotation
        JOINT rFoot
        {
          OFFSET 0.73152 -45.1104 -5.12064
          CHANNELS 3 Zrotation Xrotation Yrotation
          End Site
          {
            OFFSET -1.1221 -3.69964 12.103
          }
        }
      }
    }
  }
  JOINT lButtock
  {
    OFFSET 8.77824 4.35084 1.2192
    CHANNELS 3 Zrotation Xrotation Yrotation
    JOINT lThigh
    {
      OFFSET 0 -1.70687 -2.19456
      CHANNELS 3 Zrotation Xrotation Yrotation
      JOINT lShin
      {
        OFFSET 0 -36.8199 0.73152
        CHANNELS 3 Zrotation Xrotation Yrotation
        JOINT lFoot
        {
          OFFSET -0.73152 -45.1104 -5.12064
          CHANNELS 3 Zrotation Xrotation Yrotation
          End Site
          {
            OFFSET 1.1221 -3.69964 12.103
          }
        }
      }
    }
  }
}
MOTION
Frames:	6
Frame Time:	0.00833333
-6.06349 83.7656 36.8279 -4.26751 4.08255 -1.27372 5.1247 3.49648 4.0207 -2.69346 -5.43003 1.05302 -5.34381 7.32783 -8.64688 7.77542 -21.5085 -14.9552 -0 0 0 -0 0 0 -3.82372e-014 -1.20573e-013 -1.15509e-014 20.9505 0.474889 36.0314 -28.369 -37.5774 79.668 -0.266575 14.5589 2.09161 -2.10923e-010 7.28258e-010 7.9813e-010 -3.58522e-010 1.26888e-009 1.38408e-009 -2.10932e-010 7.28253e-010 7.98108e-010 7.73091 5.47488 0.417314 -2.10925e-010 7.28267e-010 7.98131e-010 2.90554 0.965183 0.102902 -2.10919e-010 7.28264e-010 7.98129e-010 10.2786 0.731801 0.0259123 -2.10928e-010 7.28265e-010 7.98134e-010 2.22167 -0.733487 -0.20892 -3.8151e-014 -1.20574e-013 -1.16786e-014 -87.0827 34.1452 14.999 19.8943 -12.8793 -38.4243 0.0167184 3.68579 -0.518729 4.15978e-010 1.14694e-010 1.60591e-010 7.18721e-010 1.9634e-010 2.73465e-010 4.15974e-010 1.14689e-010 1.60593e-010 -7.73091 5.47488 -0.417314 4.15979e-010 1.1469e-010 1.60592e-010 -2.90554 0.965183 -0.102902 4.15973e-010 1.14689e-010 1.60589e-010 -10.2786 0.731801 -0.0259123 4.15986e-010 1.14691e-010 1.60583e-010 -2.22167 -0.733487 0.20892 -2.03217e-016 0 -3.88251e-019 -21.691 -2.9285 -0.0106149 0.000199466 -0.571972 0.00216668 0.574662 3.49354 -0.0259958 2.03217e-016 0 3.88251e-019 11.484 -11.5327 -6.03764 0.0637897 23.1776 -0.583117 4.73539 -18.3169 14.6632 
-6.04628 83.7628 36.8367 -4.28401 4.12964 -1.03862 5.02829 3.46089 3.98168 -2.6042 -5.43876 1.04504 -5.52424 7.40957 -8.67925 8.01863 -21.6308 -14.9467 -0 0 0 -0 0 0 3.15272e-014 -6.90641e-014 -8.76206e-015 22.1698 -1.38103 33.6065 -28.3917 -37.2026 79.0346 -0.242647 13.9112 1.99464 -3.37291e-010 2.26569e-010 6.00643e-010 -5.76748e-010 3.999e-010 1.04304e-009 -3.37296e-010 2.26567e-010 6.00627e-010 7.73091 5.47488 0.417314 -3.37291e-010 2.26582e-010 6.00651e-010 2.90554 0.965183 0.102902 -3.37286e-010 2.26574e-010 6.00641e-010 10.2786 0.731801 0.0259123 -3.37292e-010 2.26575e-010 6.00643e-010 2.22167 -0.733487 -0.20892 3.16232e-014 -6.90656e-014 -8.92667e-015 -87.1088 34.2438 14.9591 19.8978 -12.8836 -38.4335 0.0162197 3.62418 -0.510037 -7.16466e-011 -2.95427e-010 -1.72518e-010 -1.23856e-010 -5.11142e-010 -3.00455e-010 -7.16494e-011 -2.95431e-010 -1.72518e-010 -7.73091 5.47488 -0.417314 -7.16445e-011 -2.95428e-010 -1.72518e-010 -2.90554 0.965183 -0.102902 -7.16507e-011 -2.9543e-010 -1.7252e-010 -10.2786 0.731801 -0.0259123 -7.16377e-011 -2.95428e-010 -1.72524e-010 -2.22167 -0.733487 0.20892 -2.03217e-016 0 -3.88251e-019 -21.6899 -2.92965 -0.0105976 0.000210748 -0.563225 0.00225378 0.576623 3.48596 -0.0263618 2.03217e-016 0 3.88251e-019 11.5308 -11.6564 -5.94794 0.0646394 23.1981 -0.580242 4.59055 -18.213 14.352 
-6.03227 83.7586 36.8482 -4.30803 4.17472 -0.784481 4.93135 3.43844 3.94834 -2.52362 -5.45319 1.03827 -5.69069 7.50197 -8.72244 8.25408 -21.7889 -14.9625 -0 0 0 -0 0 0 8.94091e-014 -1.02566e-014 -2.54887e-015 23.385 -3.45389 31.2294 -28.41 -36.7778 78.3247 -0.218763 13.2154 1.8912 -3.69185e-010 -3.0979e-010 3.00887e-010 -6.32822e-010 -5.30663e-010 5.24064e-010 -3.69186e-010 -3.0979e-010 3.00877e-010 7.73091 5.47488 0.417314 -3.69183e-010 -3.09774e-010 3.009e-010 2.90554 0.965183 0.102902 -3.69178e-010 -3.09787e-010 3.00885e-010 10.2786 0.731801 0.0259123 -3.69183e-010 -3.09786e-010 3.00883e-010 2.22167 -0.733487 -0.20892 8.95073e-014 -1.02577e-014 -2.74261e-015 -87.1213 34.3569 14.9224 19.9128 -12.9022 -38.4696 0.0153491 3.52418 -0.495928 -4.96233e-010 -6.12004e-010 -4.59076e-010 -8.57418e-010 -1.05695e-009 -7.9386e-010 -4.96235e-010 -6.12006e-010 -4.59077e-010 -7.73091 5.47488 -0.417314 -4.96231e-010 -6.12002e-010 -4.59076e-010 -2.90554 0.965183 -0.102902 -4.96237e-010 -6.12004e-010 -4.59076e-010 -10.2786 0.731801 -0.0259123 -4.96224e-010 -6.12003e-010 -4.59081e-010 -2.22167 -0.733487 0.20892 -2.03217e-016 0 -3.88251e-019 -21.6892 -2.93056 -0.0105701 0.000224265 -0.554672 0.00236111 0.578881 3.47834 -0.026771 2.03217e-016 0 3.88251e-019 11.5831 -11.7844 -5.87351 0.065566 23.2192 -0.577351 4.4454 -18.1114 14.0361 
-5.99303 83.7544 36.8639 -4.33675 4.20843 -0.532261 4.86338 3.44951 3.89968 -2.48455 -5.4728 1.02561 -5.8154 7.56954 -8.7684 8.4461 -21.9416 -14.9966 -0 0 0 -0 0 0 1.06859e-013 2.78306e-014 3.27995e-015 24.5428 -5.50308 29.1975 -28.4251 -36.3359 77.5733 -0.196994 12.545 1.7921 -2.98861e-010 -6.66916e-010 2.69457e-011 -5.12775e-010 -1.151e-009 4.92549e-011 -2.98859e-010 -6.66915e-010 2.69393e-011 7.73091 5.47488 0.417314 -2.98857e-010 -6.669e-010 2.69616e-011 2.90554 0.965183 0.102902 -2.98853e-010 -6.66915e-010 2.69433e-011 10.2786 0.731801 0.0259123 -2.98856e-010 -6.66913e-010 2.69393e-011 2.22167 -0.733487 -0.20892 1.0694e-013 2.78299e-014 3.08116e-015 -87.1263 34.458 14.9243 19.9486 -12.9473 -38.5553 0.0139986 3.37598 -0.475019 -6.54693e-010 -6.94694e-010 -5.59196e-010 -1.13108e-009 -1.1992e-009 -9.65796e-010 -6.54696e-010 -6.94695e-010 -5.59196e-010 -7.73091 5.47488 -0.417314 -6.54692e-010 -6.94692e-010 -5.59196e-010 -2.90554 0.965183 -0.102902 -6.54697e-010 -6.94693e-010 -5.59195e-010 -10.2786 0.731801 -0.0259123 -6.54684e-010 -6.94691e-010 -5.59199e-010 -2.22167 -0.733487 0.20892 -2.03217e-016 0 -3.88251e-019 -21.689 -2.93094 -0.0105336 0.000238218 -0.547617 0.00247446 0.58112 3.47169 -0.0271663 2.03217e-016 0 3.88251e-019 11.627 -11.9019 -5.84961 0.0662896 23.2389 -0.574949 4.32372 -18.0307 13.7671 
-5.94218 83.752 36.8775 -4.37956 4.2218 -0.231765 4.83048 3.5142 3.83369 -2.50455 -5.49721 1.00597 -5.90232 7.60691 -8.83578 8.60046 -22.1072 -15.0832 -0 0 0 -0 0 0 5.62372e-014 3.27098e-014 9.6166e-015 25.8969 -7.64453 27.4801 -28.4404 -35.8223 76.6703 -0.175846 11.8761 1.6936 -3.82109e-011 -7.41308e-010 -2.34912e-010 -6.49792e-011 -1.28225e-009 -4.05661e-010 -3.82078e-011 -7.41308e-010 -2.34919e-010 7.73091 5.47488 0.417314 -3.82078e-011 -7.41295e-010 -2.34898e-010 2.90554 0.965183 0.102902 -3.82026e-011 -7.41307e-010 -2.34915e-010 10.2786 0.731801 0.0259123 -3.8206e-011 -7.41306e-010 -2.34919e-010 2.22167 -0.733487 -0.20892 5.62658e-014 3.27093e-014 9.46052e-015 -87.1011 34.5886 14.9488 20.0191 -13.0365 -38.7246 0.012112 3.15768 -0.44423 -3.68693e-010 -3.91038e-010 -3.40217e-010 -6.36677e-010 -6.74874e-010 -5.87393e-010 -3.687e-010 -3.91039e-010 -3.40215e-010 -7.73091 5.47488 -0.417314 -3.68695e-010 -3.91038e-010 -3.40218e-010 -2.90554 0.965183 -0.102902 -3.687e-010 -3.91039e-010 -3.40217e-010 -10.2786 0.731801 -0.0259123 -3.68686e-010 -3.91035e-010 -3.40221e-010 -2.22167 -0.733487 0.20892 -2.03217e-016 0 -3.88251e-019 -21.6895 -2.931 -0.0104815 0.000255334 -0.541194 0.00261651 0.583836 3.46538 -0.0276256 2.03217e-016 0 3.88251e-019 11.6653 -12.0187 -5.90558 0.0668266 23.2633 -0.573056 4.21755 -17.9654 13.5294 
-5.92711 83.751 36.8853 -4.43433 4.22191 0.109574 4.81776 3.61677 3.76035 -2.56318 -5.52677 0.982878 -5.96245 7.63163 -8.92192 8.73032 -22.2975 -15.2139 -0 0 0 -0 0 0 -4.05555e-014 2.09965e-014 1.78565e-014 27.4064 -9.92322 25.9531 -28.4424 -35.228 75.653 -0.155197 11.184 1.59216 3.79953e-010 -6.62534e-010 -5.37035e-010 6.53814e-010 -1.14927e-009 -9.31311e-010 3.79956e-010 -6.62536e-010 -5.37044e-010 7.73091 5.47488 0.417314 3.79955e-010 -6.62526e-010 -5.37027e-010 2.90554 0.965183 0.102902 3.79961e-010 -6.62534e-010 -5.37038e-010 10.2786 0.731801 0.0259123 3.79957e-010 -6.62532e-010 -5.37042e-010 2.22167 -0.733487 -0.20892 -4.06042e-014 2.09963e-014 1.77757e-014 -87.0507 34.7465 14.9859 20.1148 -13.1577 -38.9565 0.0100214 2.88093 -0.405224 2.1206e-010 1.8577e-010 9.14663e-011 3.67131e-010 3.20859e-010 1.57968e-010 2.12048e-010 1.85769e-010 9.14721e-011 -7.73091 5.47488 -0.417314 2.12055e-010 1.85766e-010 9.14642e-011 -2.90554 0.965183 -0.102902 2.12049e-010 1.85766e-010 9.14667e-011 -10.2786 0.731801 -0.0259123 2.12064e-010 1.85772e-010 9.1462e-011 -2.22167 -0.733487 0.20892 -2.03217e-016 0 -3.88251e-019 -21.6905 -2.93081 -0.0104156 0.000275496 -0.535111 0.00278602 0.587004 3.45917 -0.0281484 2.03217e-016 0 3.88251e-019 11.7028 -12.1381 -6.01611 0.0672963 23.291 -0.571443 4.11853 -17.9095 13.305 
